<?xml version="1.0" encoding="UTF-8" standalone="no"?>
<!DOCTYPE svg PUBLIC "-//W3C//DTD SVG 1.1//EN"
 "http://www.w3.org/Graphics/SVG/1.1/DTD/svg11.dtd">
<!-- Generated by graphviz version 2.26.0 (20091210.2329)
 -->
<!-- Title: snakemake_dag Pages: 1 -->
<svg width="2656pt" height="128pt"
 viewBox="0.00 0.00 2656.00 128.00" xmlns="http://www.w3.org/2000/svg" xmlns:xlink="http://www.w3.org/1999/xlink">
<g id="graph1" class="graph" transform="scale(1 1) rotate(0) translate(4 124)">
<title>snakemake_dag</title>
<polygon fill="white" stroke="white" points="-4,5 -4,-124 2653,-124 2653,5 -4,5"/>
<!-- 0 -->
<g id="node1" class="node"><title>0</title>
<polyline fill="none" stroke="#56d8a9" stroke-width="2" stroke-dasharray="5,2" points="1504,-36 1474,-36 "/>
<path fill="none" stroke="#56d8a9" stroke-width="2" stroke-dasharray="5,2" d="M1474,-36C1468,-36 1462,-30 1462,-24"/>
<polyline fill="none" stroke="#56d8a9" stroke-width="2" stroke-dasharray="5,2" points="1462,-24 1462,-12 "/>
<path fill="none" stroke="#56d8a9" stroke-width="2" stroke-dasharray="5,2" d="M1462,-12C1462,-6 1468,-1.61846e-14 1474,-1.46056e-14"/>
<polyline fill="none" stroke="#56d8a9" stroke-width="2" stroke-dasharray="5,2" points="1474,-1.46056e-14 1504,-6.71068e-15 "/>
<path fill="none" stroke="#56d8a9" stroke-width="2" stroke-dasharray="5,2" d="M1504,-6.71068e-15C1510,-5.1317e-15 1516,-6 1516,-12"/>
<polyline fill="none" stroke="#56d8a9" stroke-width="2" stroke-dasharray="5,2" points="1516,-12 1516,-24 "/>
<path fill="none" stroke="#56d8a9" stroke-width="2" stroke-dasharray="5,2" d="M1516,-24C1516,-30 1510,-36 1504,-36"/>
<text text-anchor="middle" x="1489" y="-15.5" font-family="sans" font-size="10.00">all</text>
</g>
<!-- 1 -->
<g id="node2" class="node"><title>1</title>
<polyline fill="none" stroke="#d85656" stroke-width="2" stroke-dasharray="5,2" points="398,-119.5 12,-119.5 "/>
<path fill="none" stroke="#d85656" stroke-width="2" stroke-dasharray="5,2" d="M12,-119.5C6,-119.5 1.73554e-13,-113.5 1.48156e-13,-107.5"/>
<polyline fill="none" stroke="#d85656" stroke-width="2" stroke-dasharray="5,2" points="1.48156e-13,-107.5 5.07962e-14,-84.5 "/>
<path fill="none" stroke="#d85656" stroke-width="2" stroke-dasharray="5,2" d="M5.07962e-14,-84.5C2.53981e-14,-78.5 6,-72.5 12,-72.5"/>
<polyline fill="none" stroke="#d85656" stroke-width="2" stroke-dasharray="5,2" points="12,-72.5 398,-72.5 "/>
<path fill="none" stroke="#d85656" stroke-width="2" stroke-dasharray="5,2" d="M398,-72.5C404,-72.5 410,-78.5 410,-84.5"/>
<polyline fill="none" stroke="#d85656" stroke-width="2" stroke-dasharray="5,2" points="410,-84.5 410,-107.5 "/>
<path fill="none" stroke="#d85656" stroke-width="2" stroke-dasharray="5,2" d="M410,-107.5C410,-113.5 404,-119.5 398,-119.5"/>
<text text-anchor="middle" x="205" y="-106.5" font-family="sans" font-size="10.00">alignment</text>
<text text-anchor="middle" x="205" y="-93.5" font-family="sans" font-size="10.00">outdir: /hwfssz5/ST_BIGDATA/USER/yueyao/snakemake/test/snakemake&#45;example/result</text>
<text text-anchor="middle" x="205" y="-80.5" font-family="sans" font-size="10.00">sample: HBRR1</text>
</g>
<!-- 1&#45;&gt;0 -->
<g id="edge2" class="edge"><title>1&#45;&gt;0</title>
<path fill="none" stroke="grey" stroke-width="2" d="M410.276,-72.7265C413.203,-72.477 416.112,-72.2346 419,-72 822.825,-39.1966 1314.11,-23.1209 1451.66,-19.0559"/>
<polygon fill="grey" stroke="grey" points="1451.78,-22.5538 1461.68,-18.7626 1451.58,-15.5567 1451.78,-22.5538"/>
</g>
<!-- 2 -->
<g id="node3" class="node"><title>2</title>
<polyline fill="none" stroke="#d85656" stroke-width="2" stroke-dasharray="5,2" points="826,-119.5 440,-119.5 "/>
<path fill="none" stroke="#d85656" stroke-width="2" stroke-dasharray="5,2" d="M440,-119.5C434,-119.5 428,-113.5 428,-107.5"/>
<polyline fill="none" stroke="#d85656" stroke-width="2" stroke-dasharray="5,2" points="428,-107.5 428,-84.5 "/>
<path fill="none" stroke="#d85656" stroke-width="2" stroke-dasharray="5,2" d="M428,-84.5C428,-78.5 434,-72.5 440,-72.5"/>
<polyline fill="none" stroke="#d85656" stroke-width="2" stroke-dasharray="5,2" points="440,-72.5 826,-72.5 "/>
<path fill="none" stroke="#d85656" stroke-width="2" stroke-dasharray="5,2" d="M826,-72.5C832,-72.5 838,-78.5 838,-84.5"/>
<polyline fill="none" stroke="#d85656" stroke-width="2" stroke-dasharray="5,2" points="838,-84.5 838,-107.5 "/>
<path fill="none" stroke="#d85656" stroke-width="2" stroke-dasharray="5,2" d="M838,-107.5C838,-113.5 832,-119.5 826,-119.5"/>
<text text-anchor="middle" x="633" y="-106.5" font-family="sans" font-size="10.00">alignment</text>
<text text-anchor="middle" x="633" y="-93.5" font-family="sans" font-size="10.00">outdir: /hwfssz5/ST_BIGDATA/USER/yueyao/snakemake/test/snakemake&#45;example/result</text>
<text text-anchor="middle" x="633" y="-80.5" font-family="sans" font-size="10.00">sample: HBRR2</text>
</g>
<!-- 2&#45;&gt;0 -->
<g id="edge4" class="edge"><title>2&#45;&gt;0</title>
<path fill="none" stroke="grey" stroke-width="2" d="M838.006,-72.8911C841.024,-72.5893 844.023,-72.292 847,-72 1076.58,-49.4759 1352.92,-28.1968 1451.68,-20.7749"/>
<polygon fill="grey" stroke="grey" points="1452.04,-24.2573 1461.75,-20.0195 1451.52,-17.2769 1452.04,-24.2573"/>
</g>
<!-- 3 -->
<g id="node4" class="node"><title>3</title>
<polyline fill="none" stroke="#d85656" stroke-width="2" stroke-dasharray="5,2" points="1254,-119.5 868,-119.5 "/>
<path fill="none" stroke="#d85656" stroke-width="2" stroke-dasharray="5,2" d="M868,-119.5C862,-119.5 856,-113.5 856,-107.5"/>
<polyline fill="none" stroke="#d85656" stroke-width="2" stroke-dasharray="5,2" points="856,-107.5 856,-84.5 "/>
<path fill="none" stroke="#d85656" stroke-width="2" stroke-dasharray="5,2" d="M856,-84.5C856,-78.5 862,-72.5 868,-72.5"/>
<polyline fill="none" stroke="#d85656" stroke-width="2" stroke-dasharray="5,2" points="868,-72.5 1254,-72.5 "/>
<path fill="none" stroke="#d85656" stroke-width="2" stroke-dasharray="5,2" d="M1254,-72.5C1260,-72.5 1266,-78.5 1266,-84.5"/>
<polyline fill="none" stroke="#d85656" stroke-width="2" stroke-dasharray="5,2" points="1266,-84.5 1266,-107.5 "/>
<path fill="none" stroke="#d85656" stroke-width="2" stroke-dasharray="5,2" d="M1266,-107.5C1266,-113.5 1260,-119.5 1254,-119.5"/>
<text text-anchor="middle" x="1061" y="-106.5" font-family="sans" font-size="10.00">alignment</text>
<text text-anchor="middle" x="1061" y="-93.5" font-family="sans" font-size="10.00">outdir: /hwfssz5/ST_BIGDATA/USER/yueyao/snakemake/test/snakemake&#45;example/result</text>
<text text-anchor="middle" x="1061" y="-80.5" font-family="sans" font-size="10.00">sample: HBRR3</text>
</g>
<!-- 3&#45;&gt;0 -->
<g id="edge6" class="edge"><title>3&#45;&gt;0</title>
<path fill="none" stroke="grey" stroke-width="2" d="M1189.99,-72.4917C1279.9,-56.1071 1393.71,-35.3666 1451.55,-24.8243"/>
<polygon fill="grey" stroke="grey" points="1452.48,-28.2142 1461.69,-22.9779 1451.22,-21.3276 1452.48,-28.2142"/>
</g>
<!-- 4 -->
<g id="node5" class="node"><title>4</title>
<polyline fill="none" stroke="#d85656" stroke-width="2" stroke-dasharray="5,2" points="1682,-119.5 1296,-119.5 "/>
<path fill="none" stroke="#d85656" stroke-width="2" stroke-dasharray="5,2" d="M1296,-119.5C1290,-119.5 1284,-113.5 1284,-107.5"/>
<polyline fill="none" stroke="#d85656" stroke-width="2" stroke-dasharray="5,2" points="1284,-107.5 1284,-84.5 "/>
<path fill="none" stroke="#d85656" stroke-width="2" stroke-dasharray="5,2" d="M1284,-84.5C1284,-78.5 1290,-72.5 1296,-72.5"/>
<polyline fill="none" stroke="#d85656" stroke-width="2" stroke-dasharray="5,2" points="1296,-72.5 1682,-72.5 "/>
<path fill="none" stroke="#d85656" stroke-width="2" stroke-dasharray="5,2" d="M1682,-72.5C1688,-72.5 1694,-78.5 1694,-84.5"/>
<polyline fill="none" stroke="#d85656" stroke-width="2" stroke-dasharray="5,2" points="1694,-84.5 1694,-107.5 "/>
<path fill="none" stroke="#d85656" stroke-width="2" stroke-dasharray="5,2" d="M1694,-107.5C1694,-113.5 1688,-119.5 1682,-119.5"/>
<text text-anchor="middle" x="1489" y="-106.5" font-family="sans" font-size="10.00">alignment</text>
<text text-anchor="middle" x="1489" y="-93.5" font-family="sans" font-size="10.00">outdir: /hwfssz5/ST_BIGDATA/USER/yueyao/snakemake/test/snakemake&#45;example/result</text>
<text text-anchor="middle" x="1489" y="-80.5" font-family="sans" font-size="10.00">sample: UHRR1</text>
</g>
<!-- 4&#45;&gt;0 -->
<g id="edge8" class="edge"><title>4&#45;&gt;0</title>
<path fill="none" stroke="grey" stroke-width="2" d="M1489,-72.1736C1489,-64.1093 1489,-55.0196 1489,-46.6221"/>
<polygon fill="grey" stroke="grey" points="1492.5,-46.4849 1489,-36.4849 1485.5,-46.4849 1492.5,-46.4849"/>
</g>
<!-- 5 -->
<g id="node6" class="node"><title>5</title>
<polyline fill="none" stroke="#d85656" stroke-width="2" stroke-dasharray="5,2" points="2110,-119.5 1724,-119.5 "/>
<path fill="none" stroke="#d85656" stroke-width="2" stroke-dasharray="5,2" d="M1724,-119.5C1718,-119.5 1712,-113.5 1712,-107.5"/>
<polyline fill="none" stroke="#d85656" stroke-width="2" stroke-dasharray="5,2" points="1712,-107.5 1712,-84.5 "/>
<path fill="none" stroke="#d85656" stroke-width="2" stroke-dasharray="5,2" d="M1712,-84.5C1712,-78.5 1718,-72.5 1724,-72.5"/>
<polyline fill="none" stroke="#d85656" stroke-width="2" stroke-dasharray="5,2" points="1724,-72.5 2110,-72.5 "/>
<path fill="none" stroke="#d85656" stroke-width="2" stroke-dasharray="5,2" d="M2110,-72.5C2116,-72.5 2122,-78.5 2122,-84.5"/>
<polyline fill="none" stroke="#d85656" stroke-width="2" stroke-dasharray="5,2" points="2122,-84.5 2122,-107.5 "/>
<path fill="none" stroke="#d85656" stroke-width="2" stroke-dasharray="5,2" d="M2122,-107.5C2122,-113.5 2116,-119.5 2110,-119.5"/>
<text text-anchor="middle" x="1917" y="-106.5" font-family="sans" font-size="10.00">alignment</text>
<text text-anchor="middle" x="1917" y="-93.5" font-family="sans" font-size="10.00">outdir: /hwfssz5/ST_BIGDATA/USER/yueyao/snakemake/test/snakemake&#45;example/result</text>
<text text-anchor="middle" x="1917" y="-80.5" font-family="sans" font-size="10.00">sample: UHRR2</text>
</g>
<!-- 5&#45;&gt;0 -->
<g id="edge10" class="edge"><title>5&#45;&gt;0</title>
<path fill="none" stroke="grey" stroke-width="2" d="M1788.01,-72.4917C1698.1,-56.1071 1584.29,-35.3666 1526.45,-24.8243"/>
<polygon fill="grey" stroke="grey" points="1526.78,-21.3276 1516.31,-22.9779 1525.52,-28.2142 1526.78,-21.3276"/>
</g>
<!-- 6 -->
<g id="node7" class="node"><title>6</title>
<polyline fill="none" stroke="#d85656" stroke-width="2" stroke-dasharray="5,2" points="2538,-119.5 2152,-119.5 "/>
<path fill="none" stroke="#d85656" stroke-width="2" stroke-dasharray="5,2" d="M2152,-119.5C2146,-119.5 2140,-113.5 2140,-107.5"/>
<polyline fill="none" stroke="#d85656" stroke-width="2" stroke-dasharray="5,2" points="2140,-107.5 2140,-84.5 "/>
<path fill="none" stroke="#d85656" stroke-width="2" stroke-dasharray="5,2" d="M2140,-84.5C2140,-78.5 2146,-72.5 2152,-72.5"/>
<polyline fill="none" stroke="#d85656" stroke-width="2" stroke-dasharray="5,2" points="2152,-72.5 2538,-72.5 "/>
<path fill="none" stroke="#d85656" stroke-width="2" stroke-dasharray="5,2" d="M2538,-72.5C2544,-72.5 2550,-78.5 2550,-84.5"/>
<polyline fill="none" stroke="#d85656" stroke-width="2" stroke-dasharray="5,2" points="2550,-84.5 2550,-107.5 "/>
<path fill="none" stroke="#d85656" stroke-width="2" stroke-dasharray="5,2" d="M2550,-107.5C2550,-113.5 2544,-119.5 2538,-119.5"/>
<text text-anchor="middle" x="2345" y="-106.5" font-family="sans" font-size="10.00">alignment</text>
<text text-anchor="middle" x="2345" y="-93.5" font-family="sans" font-size="10.00">outdir: /hwfssz5/ST_BIGDATA/USER/yueyao/snakemake/test/snakemake&#45;example/result</text>
<text text-anchor="middle" x="2345" y="-80.5" font-family="sans" font-size="10.00">sample: UHRR3</text>
</g>
<!-- 6&#45;&gt;0 -->
<g id="edge12" class="edge"><title>6&#45;&gt;0</title>
<path fill="none" stroke="grey" stroke-width="2" d="M2139.99,-72.8911C2136.98,-72.5893 2133.98,-72.292 2131,-72 1901.42,-49.4759 1625.08,-28.1968 1526.32,-20.7749"/>
<polygon fill="grey" stroke="grey" points="1526.48,-17.2769 1516.25,-20.0195 1525.96,-24.2573 1526.48,-17.2769"/>
</g>
<!-- 7 -->
<g id="node8" class="node"><title>7</title>
<polyline fill="none" stroke="#afd856" stroke-width="2" stroke-dasharray="5,2" points="2636,-114 2580,-114 "/>
<path fill="none" stroke="#afd856" stroke-width="2" stroke-dasharray="5,2" d="M2580,-114C2574,-114 2568,-108 2568,-102"/>
<polyline fill="none" stroke="#afd856" stroke-width="2" stroke-dasharray="5,2" points="2568,-102 2568,-90 "/>
<path fill="none" stroke="#afd856" stroke-width="2" stroke-dasharray="5,2" d="M2568,-90C2568,-84 2574,-78 2580,-78"/>
<polyline fill="none" stroke="#afd856" stroke-width="2" stroke-dasharray="5,2" points="2580,-78 2636,-78 "/>
<path fill="none" stroke="#afd856" stroke-width="2" stroke-dasharray="5,2" d="M2636,-78C2642,-78 2648,-84 2648,-90"/>
<polyline fill="none" stroke="#afd856" stroke-width="2" stroke-dasharray="5,2" points="2648,-90 2648,-102 "/>
<path fill="none" stroke="#afd856" stroke-width="2" stroke-dasharray="5,2" d="M2648,-102C2648,-108 2642,-114 2636,-114"/>
<text text-anchor="middle" x="2608" y="-93.5" font-family="sans" font-size="10.00">alignment_stat</text>
</g>
<!-- 7&#45;&gt;0 -->
<g id="edge14" class="edge"><title>7&#45;&gt;0</title>
<path fill="none" stroke="grey" stroke-width="2" d="M2575.76,-77.9556C2570.3,-75.5656 2564.59,-73.446 2559,-72 2457.42,-45.7431 1703.64,-23.8207 1526.29,-18.9904"/>
<polygon fill="grey" stroke="grey" points="1526.24,-15.488 1516.15,-18.7159 1526.05,-22.4854 1526.24,-15.488"/>
</g>
</g>
</svg>
